<?xml version="1.0" standalone="no"?><!DOCTYPE svg PUBLIC "-//W3C//DTD SVG 1.1//EN" "http://www.w3.org/Graphics/SVG/1.1/DTD/svg11.dtd"><svg class="icon" height="512" viewBox="0 0 1024 1024" version="1.1" xmlns="http://www.w3.org/2000/svg"><path d="M512 0C339.47648 0 199.10656 140.35968 199.10656 312.89344v398.21312C199.10656 883.64032 339.47648 1024 512 1024s312.89344-140.35968 312.89344-312.89344V312.89344C824.89344 140.35968 684.52352 0 512 0z m256 711.10656c0 141.16864-114.83136 256-256 256s-256-114.83136-256-256V312.89344c0-141.16864 114.83136-256 256-256s256 114.83136 256 256zM512 227.55328A28.42624 28.42624 0 0 0 483.55328 256v199.10656a28.44672 28.44672 0 1 0 56.89344 0V256a28.42624 28.42624 0 0 0-28.44672-28.44672z" /></svg>